<svg width="1245" height="54" viewBox="0 0 1245 54" fill="none" preserveAspectRatio="none" xmlns="http://www.w3.org/2000/svg">
<g clip-path="url(#clip0_22_7)">
<path d="M320.824 0C320.837 0.00758092 320.848 0.0189668 320.858 0.0265478L320.85 0H320.824ZM320.858 0.0265478L331.812 33.9136C331.6 33.8628 331.407 33.8021 331.192 33.7528L331.92 34.2505L333.477 39.069C333.228 39.3878 333.016 39.7109 332.831 40.0367H327.877L320.162 37.8037L324.801 34.6285C321.65 34.6361 318.414 34.7175 315.454 35.1593C314.684 35.2745 314.032 35.4318 313.429 35.6059L311.872 34.8576L321.102 24.3703C317.562 24.3712 313.791 24.603 310.972 25.477C305.973 27.0265 305.729 29.5376 305.769 31.9214L300.924 29.5924C301.067 30.016 301.631 30.3966 302.068 30.7834C303.209 31.7917 304.458 32.7787 305.774 33.7528C305.774 33.7756 305.777 33.7984 305.774 33.8196C305.748 34.2077 305.562 34.5104 305.274 34.7618C305.232 34.7628 305.192 34.7649 305.149 34.7656C303.092 34.8342 301.038 34.9168 298.98 35.0124C298.334 34.1386 297.614 33.2731 296.735 32.4248C294.85 30.6021 292.494 28.7966 289.165 27.2928L301.437 13.3461C299.507 14.0779 297.81 14.8921 296.259 15.7418C289.52 19.4338 285.332 23.6924 281.688 27.9391C279.176 30.8653 277.113 33.8453 275.413 36.8556C274.013 37.0178 272.62 37.1937 271.235 37.3766L270.436 37.1455C269.851 36.0901 269.218 35.039 268.521 33.9936C265.585 29.5887 262.038 25.1498 256.022 21.2048L258.546 17.9884C256.54 18.376 254.735 18.872 253.085 19.44C249.959 17.7033 246.2 16.0543 241.196 15.0875L246.823 22.2566C246.574 22.3946 246.294 22.5273 246.052 22.666C239.714 26.2984 235.883 30.4442 232.839 34.6362C230.179 34.6552 227.491 34.7529 224.969 35.0828C223.167 31.6875 220.879 28.33 218.055 25.0381C217.46 24.3449 216.815 23.6551 216.183 22.9637C216.302 22.861 216.445 22.7633 216.56 22.6602C216.997 22.2733 217.561 21.8927 217.703 21.4691L215.702 22.431C212.561 19.0708 208.844 15.7753 203.487 12.8408C201.936 11.9911 200.235 11.1769 198.306 10.4451L210.887 24.7443L188.444 35.5372C187.358 35.2541 186.211 35.0026 185.005 34.7949C184.637 34.7312 184.266 34.6717 183.878 34.6266L187.001 36.2308L183.123 38.0956C181.933 37.3638 180.688 36.6453 179.353 35.9507C176.583 34.5097 173.235 33.1911 169.46 32.0978L178.898 2.90198C171.408 8.57547 166.76 14.7316 163.881 20.964C162.71 23.4976 161.828 26.0421 161.156 28.5935C160.672 29.0545 160.226 29.5207 159.775 29.9862C158.308 29.7618 156.804 29.5726 155.27 29.422C153.414 28.7208 151.446 28.0631 149.349 27.4848C136.438 23.9238 120.95 21.7202 105.161 21.0169C103.54 20.9445 101.908 20.891 100.274 20.8895L111.496 23.9805L153.145 35.4532C151.938 35.6984 150.781 35.9794 149.665 36.2798C147.014 35.5663 144.107 34.9833 140.988 34.6285L145.047 37.741C143.108 38.4475 141.345 39.2177 139.736 40.0367H125.231C124.39 39.5748 123.507 39.1254 122.588 38.687L128.742 35.4805C129.076 35.327 129.423 35.1781 129.75 35.0222L130.03 34.8088L134.477 32.4935C126.844 32.57 119.728 33.6712 113.647 35.3475C112.747 35.0935 111.827 34.8479 110.865 34.6286L111.496 35.0614L112.411 35.6883C110.042 36.3886 107.839 37.173 105.854 38.0251C105.575 37.5196 105.299 37.0147 104.99 36.511C102.362 32.2269 99.2445 27.6655 91.0851 24.3704L96.9958 40.0368H95.6047C93.7376 39.3391 91.7168 38.7046 89.5749 38.1367L91.4574 34.6286C89.564 35.4852 87.8242 36.3855 86.224 37.32C85.0532 37.0607 83.8482 36.824 82.6247 36.6011C80.7083 33.1687 78.1909 29.781 74.9041 26.5035L75.7624 25.53C75.1665 25.5302 74.5615 25.5489 73.9578 25.5641C72.4923 24.176 70.8912 22.808 69.1226 21.4683L70.5086 25.7502C68.7426 25.9166 67.0627 26.1921 65.6321 26.6356C59.525 28.5286 60.5086 31.8551 60.44 34.6275C60.395 34.6273 60.3511 34.6255 60.3055 34.6255L60.44 34.6668V34.9761C60.3235 36.8684 56.5784 36.9019 53.702 37.3834C51.1401 37.0443 48.5408 36.746 45.9194 36.4765C45.6758 36.0532 45.4388 35.6292 45.1799 35.2073L47.0361 34.6255C46.298 34.6285 45.5606 34.6407 44.8229 34.6559C43.394 32.3927 41.7561 30.1493 39.8585 27.9371C36.2153 23.6903 32.0259 19.4317 25.2859 15.7398C23.7347 14.8901 22.0383 14.0759 20.1095 13.3441L39.0674 34.8888C37.0152 35.0155 34.985 35.1914 32.986 35.408C28.5768 35.1267 24.1453 34.9109 19.7165 34.7636C19.2849 34.7483 18.8506 34.7408 18.4185 34.7294C16.5898 33.2647 14.4431 31.8596 11.9958 30.5297L14.8038 28.6102C12.7243 28.614 10.6188 28.6572 8.57244 28.808C8.43214 28.7433 8.30595 28.6746 8.16385 28.6102L8.28284 28.8297C7.62407 28.882 6.97094 28.9444 6.32808 29.0233C6.23501 29.0347 6.15076 29.0537 6.05918 29.0666L-4.91419 23.7915C-4.77119 24.2151 -4.20883 24.5958 -3.77135 24.9825C-1.87801 26.6556 0.307479 28.2722 2.65651 29.856C0.710991 30.5507 -0.455491 31.5261 -0.435898 32.5649C-0.408878 33.6937 0.937182 35.6139 -3.83341 35.5189C-5.15601 35.4923 -6.7353 35.5415 -7.98077 35.7519V44.21V45.3775V47.5478V54H1245V38.365C1242.86 36.657 1240.03 35.0755 1236.21 33.8793L1245 31.4582V26.052C1237.46 27.1395 1230.27 28.5885 1223.75 30.3868C1219.86 31.4586 1216.33 32.76 1213.4 34.228C1213.32 33.3361 1213.22 32.4451 1213.1 31.5543L1217.46 30.2908C1215.95 30.5122 1214.48 30.7628 1213.01 31.0058C1212.35 26.6727 1211.2 22.3523 1209.22 18.0641C1206.34 11.8317 1201.7 5.6755 1194.21 0.00208212L1203.16 27.6954L1203.06 27.8816C1200.05 29.1011 1197.74 30.4934 1195.88 31.9793C1196.42 27.6955 1195.81 23.3822 1194.99 19.114L1186.27 35.3583L1174.28 29.5935C1174.42 30.0171 1174.98 30.3977 1175.42 30.7845C1177.96 33.0255 1181 35.1684 1184.32 37.2564C1181.53 38.0118 1178.81 38.8004 1176.12 39.603C1176.16 38.9841 1176.16 38.365 1176.05 37.7461C1175.92 37.0824 1175.65 36.316 1174.23 35.8558C1173.81 35.7208 1173.32 35.6754 1172.82 35.6618C1173.77 37.0761 1174.44 38.5164 1174.91 39.9691C1174.83 39.9918 1174.76 40.0146 1174.68 40.0377H1172.3C1171.77 38.6347 1171.15 37.2371 1170.47 35.8439C1171.23 35.7222 1172.04 35.6413 1172.82 35.6618C1172.08 34.5652 1171.19 33.4819 1170.1 32.4238C1169.21 31.5683 1168.17 30.7263 1167.03 29.9068C1166.09 28.4985 1165.05 27.0995 1163.92 25.711L1174.8 13.3452C1172.87 14.0769 1171.17 14.8912 1169.62 15.7408C1166.02 17.71 1163.17 19.8422 1160.72 22.0462C1157.54 18.6176 1153.78 15.252 1148.32 12.26C1146.77 11.4104 1145.07 10.5962 1143.14 9.86443L1157.07 25.6895C1156.38 26.4385 1155.69 27.1869 1155.04 27.9382C1151.65 31.8918 1149.05 35.9407 1147.12 40.0356H1145.26C1144.47 38.3058 1143.51 36.588 1142.43 34.8821C1143.53 32.445 1143.92 29.9627 1143.43 27.4955L1139.42 30.5669C1136.93 27.3179 1133.83 24.1268 1129.38 21.2059L1131.91 17.9876C1129.9 18.3751 1128.09 18.8711 1126.44 19.439C1123.31 17.7023 1119.56 16.0554 1114.55 15.0885L1120.18 22.2538C1119.93 22.3922 1119.65 22.526 1119.41 22.6652C1112.2 26.7977 1108.19 31.5921 1104.95 36.3669L1093.45 27.5445C1092.8 26.7055 1092.13 25.8683 1091.42 25.0372C1090.82 24.3439 1090.17 23.6542 1089.54 22.9629C1089.66 22.8601 1089.81 22.7624 1089.92 22.6593C1090.36 22.2724 1090.92 21.8919 1091.06 21.4683L1089.06 22.4301C1085.92 19.07 1082.2 15.7745 1076.84 12.8398C1075.29 11.9902 1073.59 11.1761 1071.67 10.4442L1084.25 24.7434L1072.87 30.2143C1072.56 29.5245 1072.04 28.8452 1071.17 28.1928L1069.73 29.1761C1066.81 23.71 1062.43 18.3405 1055.83 13.3452L1062.54 34.0965L1057.21 37.7419L1056.48 38.0963C1055.29 37.3642 1054.04 36.6446 1052.71 35.9494C1049.94 34.5078 1046.59 33.1882 1042.82 32.0945L1052.25 2.90083C1044.76 8.57431 1040.12 14.7304 1037.24 20.9628C1036.07 23.4983 1035.18 26.0449 1034.51 28.5981C1034.03 29.0573 1033.59 29.5214 1033.14 29.9849C1031.66 29.7598 1030.16 29.5716 1028.62 29.4208C1026.76 28.72 1024.81 28.0616 1022.71 27.4836C1009.8 23.9226 994.304 21.719 978.516 21.0156C976.893 20.9433 975.262 20.8898 973.629 20.8883L984.855 23.9812L1026.5 35.452C1025.03 35.751 1023.62 36.0932 1022.28 36.4724C1018.73 37.4789 1015.72 38.6979 1013.09 40.0355H1003.85L1000.51 37.1835C999.589 37.3571 998.443 37.5242 997.391 37.497C999.375 36.6983 1001.3 35.8798 1003.11 35.0211L1003.62 34.6273L998.922 35.9867L1001.57 34.6254C1001.19 34.6705 1000.81 34.73 1000.45 34.7937C998.985 35.0454 997.622 35.3657 996.338 35.7261C995.31 33.7325 994.77 31.7015 994.537 29.6675C994.535 29.7016 994.54 29.7725 994.537 29.8028C994.373 31.6716 993.825 33.5425 994.164 35.4128C994.214 35.6975 994.31 35.998 994.495 36.2884C993.727 36.5472 993.033 36.8341 992.34 37.1229C990.804 36.5251 989.17 35.9622 987.412 35.452C986.388 35.1555 985.329 34.879 984.224 34.6273L984.857 35.0582L989.697 38.3725C989.48 38.4904 989.226 38.6012 989.019 38.7213C988.884 38.7997 988.773 38.8846 988.641 38.9642L984.934 40.0377H977.724C975.643 38.4778 973.2 36.9908 970.398 35.5991L958.648 13.7096C957.327 20.6396 956.519 27.6917 960.329 34.5374C960.369 34.6094 960.419 34.6788 960.464 34.7508C949.323 31.3608 937.395 28.2949 924.408 26.0303C924.35 24.9196 923.778 23.8246 922.399 22.7904L918.949 25.1508C918.395 25.0659 917.855 24.9684 917.299 24.8862L918.731 25.2995L909.629 31.5245L907.121 33.2404C896.107 30.0683 884.301 27.2826 871.502 25.2799L872.868 24.8862C872.22 24.9814 871.595 25.0947 870.954 25.1936C870.313 25.0947 869.691 24.981 869.045 24.8862L870.411 25.2799C862.394 26.5342 854.766 28.0928 847.482 29.8674L837.135 22.7903C833.309 25.6589 835.47 29.0011 838.676 31.8183C838.766 31.8983 838.901 31.9742 839.002 32.0534C835.427 33.0318 831.94 34.0535 828.525 35.1052C827.68 35.1761 826.841 35.2557 826.007 35.342L825.009 33.7515C824.871 34.3305 824.76 34.9145 824.641 35.4968C824.167 35.551 823.693 35.6022 823.224 35.6613C822.528 35.3122 821.832 34.9633 821.088 34.6271L821.749 35.8611C819.422 36.1848 817.156 36.5703 814.979 37.0168L812.554 35.3557C813.465 34.9594 814.357 34.5563 815.223 34.1452L815.737 33.7514L811.852 34.8758L810.208 33.7514C809.689 34.1463 809.297 34.5467 808.988 34.9502C808.76 34.8441 808.553 34.7323 808.32 34.6269L808.712 35.3615C808.612 35.5275 808.519 35.6939 808.45 35.8609L803.274 37.3594L804.741 34.6269C802.638 35.5789 800.727 36.5863 798.985 37.6337L798.746 37.5946L795.572 37.0677L793.872 34.3509L778.317 9.51532C776.638 16.4786 776.305 23.6846 781.801 30.4156C783.104 32.0111 784.814 33.63 787.144 35.0834C786.67 35.2074 786.178 35.3196 785.722 35.4519C785.182 35.608 784.677 35.7782 784.16 35.9435C780.575 35.5332 776.929 35.1931 773.257 34.9054C773.067 34.8675 772.881 34.8277 772.685 34.7936C772.315 34.7299 771.944 34.6703 771.557 34.6253L771.894 34.7977C771.115 34.7397 770.331 34.692 769.55 34.6389L769.511 34.6275V34.6389C768.677 34.5824 767.848 34.5214 767.014 34.4705C767.144 34.237 767.255 33.9992 767.308 33.7536L763.998 34.3021C760.9 34.1357 757.795 33.9939 754.694 33.8907C752.407 33.8145 750.114 33.7562 747.816 33.7534L748.329 33.8377L757.559 35.3694L750.863 36.4801C750.863 36.4781 750.834 36.4763 750.834 36.4725C750.275 36.3145 749.698 36.1673 749.116 36.022C748.176 35.2648 746.677 34.6275 744.379 34.2845C741.419 33.8428 738.189 33.7592 735.041 33.7517L739.817 37.021C739.24 36.8364 738.673 36.6453 738.064 36.4725C736.486 36.0239 734.797 35.629 733.028 35.2953C732.464 34.4664 731.813 33.6461 731.085 32.837L748.507 19.4742C744.183 19.9657 740.256 20.8793 736.87 21.9991C732.049 23.5933 728.233 25.5526 725.162 27.6736C722.093 25.5529 718.281 23.593 713.459 21.9991C710.073 20.8793 706.149 19.9657 701.825 19.4742L719.242 32.835C718.932 33.1777 718.646 33.523 718.368 33.8693C716.861 33.9474 715.376 34.0728 713.957 34.2845C709.035 35.0191 707.671 37.0818 707.963 38.8485C708.053 39.3948 707.796 39.7674 707.327 40.0355H691.566C691.404 39.0262 691.16 38.0196 690.851 37.0151L710.528 33.7517C708.23 33.7548 705.937 33.8127 703.65 33.8889C699.072 34.0413 694.483 34.2668 689.927 34.5628C689.675 34.0013 689.439 33.439 689.13 32.8801C686.413 28.0003 680.924 23.3107 672.431 19.4743L680.906 35.2601C677.128 35.6046 673.397 36.0158 669.733 36.5L661.059 33.9888L668.854 19.4743C660.36 23.3107 654.871 28.0003 652.155 32.8801C650.839 35.2451 650.103 37.6351 649.719 40.0356H645.043L656.084 19.4743C647.593 23.3107 642.104 28.0003 639.388 32.8801C638.662 34.1809 638.151 35.4903 637.733 36.8036C635.969 35.7407 634.042 34.7169 631.911 33.7518L634.137 37.9045C631.196 37.9848 627.515 38.1455 627.73 36.5881C627.876 35.5447 627.192 34.0672 623.47 34.2278C615.961 34.5523 610.335 31.4369 603.406 30.3064C598.121 29.4442 592.14 28.7979 586.402 29.0056C586.402 27.0815 585.825 25.1599 584.369 23.2586L570.527 38.9877C569.01 38.2323 567.349 37.5233 565.546 36.8662L569.605 33.7518C566.489 34.1066 563.584 34.69 560.934 35.4031C559.404 34.9913 557.783 34.6296 556.089 34.3257L556.838 33.7518C556.06 33.8401 555.3 33.9467 554.548 34.0611C553.796 33.9467 553.033 33.8401 552.258 33.7518L553.007 34.3257C552.202 34.4698 551.416 34.626 550.648 34.7959C549.981 34.6238 549.316 34.4494 548.636 34.2827L549.997 34.937C549.369 35.0836 548.763 35.2412 548.162 35.4031C547.269 35.1631 546.345 34.9407 545.395 34.7351L552.112 29.0115C551.066 29.2273 550.169 29.5335 549.308 29.842C546.017 31.0244 543.589 32.491 541.619 34.0398C540.918 33.9348 540.211 33.8343 539.488 33.7517L540.777 34.7389C540.325 35.1264 539.864 35.5128 539.459 35.9045C538.363 36.9625 537.468 38.0438 536.726 39.1403C537.195 39.129 537.669 39.1518 538.148 39.2051C537.616 39.4784 537.084 39.7525 536.583 40.0356H536.184C536.361 39.737 536.528 39.437 536.726 39.1403C536.321 39.1517 535.929 39.1868 535.575 39.2735L526.612 22.5925C525.895 26.3499 525.363 30.1416 525.603 33.9182C525.603 33.9182 525.603 33.9191 525.577 33.9202C523.769 34.2317 522.095 34.6379 520.557 35.1112L513.895 17.4565C513.112 23.1526 512.474 28.9024 512.722 34.6312C512.662 34.6122 512.603 34.5933 512.545 34.5762C511.523 34.2799 510.459 34.0032 509.355 33.7515L512.783 36.0963C512.836 36.8311 512.955 37.5642 513.043 38.298L510.851 38.9326L499.1 25.5795C497.366 27.85 496.855 30.1487 497.13 32.4471C495.618 31.6232 493.929 30.8471 492.068 30.1298C496.397 27.5517 500.31 24.8863 503.487 22.0792C503.924 21.6925 504.488 21.3119 504.629 20.8882L488.194 28.79C487.403 28.5429 486.619 28.2904 485.796 28.0633C472.883 24.5024 457.397 22.2987 441.606 21.5953C439.985 21.5229 438.354 21.4694 436.721 21.4679L437.232 21.6089L479.123 33.1502L476.942 34.2L477.18 33.7515C476.436 34.0877 475.742 34.4368 475.043 34.7858C469.817 34.1253 464.304 33.7731 458.802 33.7515L461.988 34.7505C461.72 34.7103 461.458 34.6671 461.191 34.6273L462.472 34.9994C459.92 35.5057 457.685 36.2079 455.71 37.0093C454.092 36.7701 452.459 36.5461 450.812 36.3373C454.026 34.3157 456.041 32.0434 456.21 29.6404L440.925 33.8517C440.319 33.8744 439.713 33.9014 439.109 33.9321C438.759 32.2419 437.647 30.6412 434.084 29.5365C431.264 28.6624 427.494 28.4309 423.951 28.4299L429.196 34.3904C425.542 34.1789 421.87 34.0109 418.208 33.8889C415.918 33.8127 413.628 33.7544 411.329 33.7517L416.982 34.6901L413.305 35.7536L411.66 34.6273C410.824 35.2632 410.289 35.9124 409.979 36.5685C408.494 35.7952 406.813 35.0821 404.845 34.4784L406.598 32.4864L412.209 26.1105C408.669 26.1114 404.898 26.3414 402.078 27.2152C395.721 29.1857 397.061 32.7259 396.886 35.5597C396.796 37.0132 394.562 37.3669 392.226 37.6713C390.214 37.387 388.183 37.1229 386.129 36.8839C385.454 36.4725 384.741 36.0691 384.011 35.6714L386.817 33.7517C384.744 33.7556 382.644 33.8067 380.6 33.9575C380.455 33.89 380.325 33.8184 380.177 33.7517L380.296 33.9769C379.34 34.053 378.392 34.146 377.479 34.2824C375.549 34.5701 374.182 35.0669 373.232 35.6653C371.651 35.5481 370.065 35.4394 368.474 35.3419C368.606 35.1081 368.715 34.8711 368.771 34.625L365.461 35.1736C363.364 35.0609 361.267 34.9646 359.167 34.8816L399.441 23.787C397.808 23.789 396.179 23.842 394.559 23.9144C378.771 24.6178 363.277 26.8214 350.367 30.3823C350.205 30.427 350.057 30.4798 349.895 30.5252L349.151 30.1686C349.207 30.3335 349.355 30.4877 349.506 30.6427C345.963 31.6649 342.717 32.8682 340.017 34.2252C339.511 28.81 338.306 23.4106 335.833 18.0594C332.961 11.837 328.327 5.69242 320.858 0.0265478ZM994.537 29.6675C994.606 28.5652 994.407 25.7481 994.389 26.7405C994.36 27.7136 994.426 28.6905 994.537 29.6675ZM870.957 25.4399L891.254 31.3162L904.384 35.1163L904.156 35.2709C901.659 35.1257 899.157 35.0087 896.652 34.9067C896.348 34.5187 895.975 34.1329 895.474 33.7529L893.944 34.7989C893.655 34.7875 893.364 34.7762 893.075 34.7648C891.018 34.6962 888.958 34.6477 886.896 34.6356L886.946 34.628C886.822 34.6282 886.697 34.6311 886.573 34.6318C886.446 34.6313 886.326 34.628 886.202 34.628L886.25 34.6356C884.187 34.6469 882.122 34.6962 880.065 34.7648C876.331 34.8891 872.593 35.0586 868.87 35.2761C867.981 35.1139 867.096 34.9489 866.196 34.7942C864.944 34.5785 863.683 34.3685 862.41 34.1673L863.223 33.7502C862.834 33.7953 862.458 33.859 862.09 33.9226C861.896 33.9567 861.716 33.995 861.526 34.0303C860.932 33.9382 860.345 33.8408 859.749 33.7521L861.036 34.1243C859.124 34.5029 857.366 34.9814 855.777 35.5366L849.923 31.5328L870.957 25.4399ZM212.118 26.143L214.414 28.7541C213.872 28.9138 213.354 29.0835 212.858 29.2615C208.263 30.9123 205.3 33.1102 203.006 35.3259C202.813 35.5123 202.66 35.7042 202.479 35.8919C201.764 35.6793 201.012 35.4853 200.24 35.3043L201.227 34.6285C200.588 34.7745 199.993 34.9447 199.381 35.1065C198.871 34.9984 198.353 34.8953 197.82 34.8029C203.042 32.0139 207.944 29.1506 212.118 26.143ZM1085.48 26.143L1087.78 28.7541C1087.24 28.9138 1086.72 29.0831 1086.22 29.2615C1085.45 29.537 1084.75 29.8333 1084.06 30.137L1081.98 28.5406C1083.2 27.7525 1084.36 26.951 1085.48 26.143ZM924.323 26.9207L935.841 30.2545L951.639 34.8263C951.044 35.1004 950.477 35.3806 949.911 35.6628C944.684 35.0023 939.172 34.65 933.67 34.6285L935.841 35.3082L945.288 38.2699C944.38 38.8481 943.519 39.4363 942.719 40.0367H942.455C941.287 39.7604 940.104 39.4998 938.923 39.2748C931.949 37.9454 924.578 36.9635 917.018 36.2446C916.166 35.9732 915.324 35.6996 914.463 35.4317C916.743 34.2525 919.412 33.093 920.86 31.8197C922.602 30.2885 923.992 28.6019 924.323 26.9207ZM251.011 27.5925L260.071 39.1396C259.817 39.187 259.554 39.2265 259.301 39.2749C258.12 39.5002 256.938 39.7604 255.769 40.0369H245.323L245.778 39.4552C244.892 39.6261 244.061 39.8267 243.249 40.0369H242.737C242.427 39.8045 242.112 39.5745 241.786 39.3455L251.011 27.5925ZM1124.37 27.5925L1126.69 30.5445L1115.05 39.4746L1124.37 27.5925ZM287.871 28.7581L295.427 35.2005C292.912 35.3381 290.405 35.4924 287.908 35.6785L288.668 34.8146C287.842 35.1289 287.076 35.465 286.324 35.8058C284.643 35.9392 282.962 36.0787 281.294 36.2367L287.871 28.7581ZM1088.15 29.1733L1093.42 35.1633L1091.93 36.178L1085.61 31.3299L1088.15 29.1733ZM214.786 29.1753L220.899 36.1172C220.605 36.2518 220.32 36.389 220.082 36.5383L213.845 34.7343L214 34.6285C213.905 34.6512 213.821 34.677 213.726 34.699L213.483 34.6285L213.612 34.7287C212.652 34.9549 211.708 35.193 210.81 35.4535C209.05 35.9634 207.416 36.5249 205.881 37.1223C205.788 37.0833 205.691 37.0454 205.597 37.0067L214.786 29.1753ZM1080.42 29.5104C1080.42 30.3203 1080.5 31.1297 1080.67 31.9373C1078.96 33.0118 1077.57 34.1654 1076.36 35.3261C1075.27 36.3842 1074.38 37.4655 1073.64 38.562C1074.26 38.5468 1074.9 38.5884 1075.52 38.6738L1073.78 39.8627C1073.69 39.4908 1073.6 39.1196 1073.5 38.7482C1073.54 38.6856 1073.59 38.6244 1073.64 38.562C1073.58 38.564 1073.51 38.559 1073.46 38.5621C1073.08 37.2035 1072.63 35.8474 1072.12 34.4937C1072.19 34.3906 1072.27 34.2871 1072.33 34.1843C1075.16 32.6544 1077.87 31.0985 1080.42 29.5104ZM1160.5 29.5907L1169.69 40.0369H1165.33L1159.14 38.0978L1162.03 34.8148C1160.1 35.5465 1158.4 36.3608 1156.85 37.2104C1155.19 38.1212 1153.68 39.0659 1152.3 40.0369H1151.31L1160.5 29.5907ZM71.8632 29.9588L73.6009 35.3278C71.6156 35.1247 69.5944 34.967 67.5607 34.8518L71.8632 29.9588ZM586.201 31.1106L599.326 33.8627C598.838 33.9782 598.372 34.106 597.898 34.2307C597.377 34.1196 596.845 34.0158 596.297 33.9214C595.929 33.8577 595.555 33.796 595.169 33.7508L596.704 34.5402C596.654 34.5554 596.604 34.563 596.559 34.5792C594.798 35.0898 593.167 35.6519 591.631 36.2501C589.714 35.4518 587.551 34.7418 585.073 34.2208C585.566 33.1871 585.979 32.1493 586.201 31.1106ZM8.02416 33.2496C9.26248 33.9817 10.5282 34.7081 11.825 35.4277L13.5522 38.6441C11.4304 37.2649 8.75407 36.0281 5.34544 35.083L8.02416 33.2496ZM841.93 33.845C844.077 34.9487 846.466 36.0204 847.872 37.1652C843.201 37.7496 838.621 38.4367 834.215 39.2767C833.034 39.5016 831.853 39.7624 830.683 40.0387H830.421C829.618 39.439 828.761 38.8513 827.855 38.2738L828.588 38.0427L839.47 34.6305C839.38 34.6308 839.29 34.6316 839.2 34.6324L841.353 34.0095L841.93 33.845ZM599.527 33.9076L601.478 34.317L606.694 35.4099C605.902 35.6798 605.143 35.9613 604.399 36.2503C602.725 35.5529 600.867 34.9235 598.762 34.4305L599.527 33.9076ZM660.953 34.2267C662.899 35.1461 664.985 36.0173 667.133 36.8692C664.308 37.2744 661.528 37.723 658.806 38.2266L660.953 34.2267ZM525.656 34.309C525.656 34.4227 525.683 34.5364 525.683 34.6497L524.094 35.1082L525.656 34.309ZM861.96 34.395L865.714 35.4821C863.403 35.6361 861.102 35.8112 858.814 36.0091L861.96 34.395ZM1234.15 34.4458L1236.05 37.48C1233.98 37.3227 1231.83 37.2794 1229.72 37.276L1233.75 40.036H1213.95L1214.01 39.9928L1234.15 34.4458ZM484.188 34.5379L486.868 35.2763C486.137 35.6591 485.425 36.0479 484.747 36.4438C483.762 36.2259 482.753 36.025 481.731 35.8327C482.56 35.403 483.373 34.9705 484.188 34.5379ZM1129.83 34.5492L1129.94 34.6846L1129.8 34.5925C1129.8 34.5773 1129.83 34.5622 1129.83 34.5492ZM886.567 34.6883L892.636 35.6933L890.007 37.4894C887.42 37.6471 884.833 37.8279 882.268 38.0359C880.017 37.5149 877.732 37.0154 875.421 36.5375L875.72 36.4867L879.04 35.9363L886.567 34.6883ZM417.117 34.7074L422.577 35.6142L423.244 35.7238C420.62 36.2016 418.11 36.7627 415.751 37.4064L414.035 36.2331C414.946 35.8359 415.836 35.4328 416.704 35.0206L417.117 34.7074ZM213.726 34.8131L214 35.0208C215.645 35.8018 217.374 36.5525 219.166 37.2833C218.433 38.0575 218.196 38.9195 218.329 39.7239C218.355 39.8372 218.329 39.9358 218.329 40.0355H211.141C210.559 39.5853 209.936 39.1432 209.207 38.7211C208.998 38.6007 208.748 38.4891 208.529 38.3705L213.726 34.8131ZM951.902 34.8992L959.816 37.1909C959.744 37.2338 959.662 37.2751 959.588 37.3183C956.98 36.7406 954.229 36.2562 951.385 35.8609L951.902 34.8992ZM584.713 34.9371L589.222 37.2523C587.263 38.1267 585.494 39.0648 583.858 40.0358H581.329C582.645 38.357 583.81 36.6541 584.713 34.9371ZM197.416 35.0212L198.187 35.415C198.139 35.4301 198.09 35.4377 198.042 35.454C196.645 35.8592 195.345 36.3046 194.091 36.7664C195.211 36.1874 196.318 35.6055 197.416 35.0212ZM597.79 35.0955L601.478 36.9897L601.989 37.2543C600.34 37.9899 598.828 38.7703 597.414 39.5774C596.71 38.9802 595.907 38.3988 594.957 37.8478C594.748 37.7276 594.496 37.6173 594.279 37.4991L597.79 35.0955ZM463.436 35.2698L465.8 35.9535L466.452 36.1434L470.37 37.3716L466.973 39.0052C466.012 38.7876 465.046 38.5815 464.082 38.398C462.43 38.083 460.754 37.7917 459.062 37.5145L463.436 35.2698ZM525.739 35.3002C525.926 36.8847 526.292 38.464 526.84 40.0365H525.278C524.163 39.3729 522.98 38.7256 521.717 38.1032L521.333 37.0925C522.831 36.505 524.327 35.9175 525.739 35.3002ZM787.735 35.4313C788.51 35.8848 789.36 36.3138 790.274 36.7241C789.043 36.5528 787.798 36.3967 786.551 36.2422L787.735 35.4313ZM554.569 35.5098L555.263 36.0407C554.927 35.9448 554.588 35.853 554.249 35.7586L554.569 35.5098ZM232.058 35.7312C231.789 36.1203 231.48 36.5077 231.221 36.8966C231.163 36.985 231.111 37.0745 231.055 37.1631C230.793 37.0941 230.535 37.0206 230.264 36.9554L232.058 35.7312ZM356.049 35.7539C356.435 36.0204 356.8 36.291 357.198 36.555L351.261 37.5384C351.161 37.4117 351.052 37.2863 350.925 37.1642L356.049 35.7539ZM4.35256 35.7653L7.03128 40.0413H-1.89413L1.51888 37.7045L4.35256 35.7653ZM488.864 35.832L493.384 37.0778L491.615 38.2883C490.487 37.9252 489.304 37.589 488.094 37.2678L488.864 35.832ZM20.1559 35.8472L24.0602 36.4975L24.7222 36.607C24.0012 36.7382 23.2897 36.8743 22.5864 37.0184L20.1559 35.8472ZM609.302 35.9609L625.508 39.3613C626.149 39.5895 626.79 39.817 627.436 40.0429H612.286C611.746 39.9091 611.142 39.8659 610.523 39.8569C610.591 39.9183 610.644 39.9812 610.708 40.0429H607.47C608.434 39.9402 609.503 39.8429 610.523 39.8569C609.755 39.161 608.833 38.4887 607.735 37.853C607.528 37.7329 607.277 37.6225 607.057 37.5043L609.302 35.9609ZM199.268 35.9761L201.398 37.069C200.987 37.565 200.615 38.0642 200.276 38.5675C200.932 38.5485 201.621 38.5979 202.277 38.693C201.358 39.1313 200.475 39.5806 199.635 40.0426H199.397C199.664 39.5487 199.946 39.0557 200.276 38.5675C199.774 38.5826 199.287 38.6271 198.869 38.7617C198.259 38.9584 197.894 39.2173 197.628 39.4942C197.25 39.2354 196.864 38.9773 196.434 38.7284C196.227 38.6082 195.975 38.498 195.756 38.3797L199.268 35.9761ZM403.559 35.978L404.199 37.0044L404.938 38.1856L404.199 38.399L401.496 39.1824C401.276 39.1418 401.054 39.107 400.837 39.0668L403.559 35.978ZM1082.39 36.407C1083.11 37.6374 1084.03 38.8503 1085.11 40.0405H1079.24C1080.44 38.8498 1081.5 37.6367 1082.39 36.407ZM1128.89 36.407C1129.23 36.8787 1129.6 37.3488 1129.98 37.8154L1127.08 40.0405H1126.17C1127.25 38.8503 1128.17 37.6374 1128.89 36.407ZM66.1439 36.4639L69.1226 37.3962L71.9254 38.2757C71.0186 38.8533 70.1615 39.4408 69.3603 40.0405H69.0966C67.9274 39.7638 66.7455 39.5037 65.5649 39.2786C65.024 39.1755 64.4653 39.0876 63.9204 38.9887L66.1439 36.4639ZM897.423 36.4942L900.364 36.9819C899.401 37.0202 898.437 37.0517 897.476 37.0956C897.476 36.8947 897.444 36.6945 897.423 36.4942ZM553.277 36.5055L555.04 37.3557C554.887 37.4159 554.72 37.4709 554.569 37.5319C554.005 37.3022 553.399 37.0875 552.8 36.8699L553.24 36.5329L553.277 36.5055ZM764.657 36.5468L777.29 38.6427C776.336 39.0958 775.42 39.5609 774.549 40.0393H760.043C759.394 39.7085 758.713 39.3862 758.012 39.0717C760.614 38.3735 762.952 37.5319 764.657 36.5468ZM543.224 36.6056L543.571 36.8702C543.173 37.0142 542.782 37.1598 542.4 37.309L543.224 36.6056ZM310.185 36.7762C310.31 36.8561 310.442 36.9346 310.569 37.015C309.608 37.854 309.314 38.8284 309.463 39.7279C309.489 39.8413 309.463 39.9397 309.463 40.0394H307.315L310.185 36.7762ZM1094.87 36.8152L1097.71 40.0413H1096.97L1094.07 37.8162C1094.34 37.4837 1094.62 37.1503 1094.87 36.8152ZM808.204 37.1287C808.204 37.6152 808.368 38.1027 808.567 38.5899C808.106 38.7233 807.659 38.8636 807.211 39.0032L804.497 38.5527C805.763 38.0887 806.981 37.6076 808.204 37.1287ZM871.571 37.1814L876.371 38.5721C873.025 38.9053 869.72 39.2959 866.479 39.7474C866.509 39.6443 866.519 39.5401 866.519 39.4419C866.519 39.1292 866.469 38.5205 866.448 38.0315L871.571 37.1814ZM296.052 37.2834C294.691 38.1327 293.852 39.0666 293.256 40.0413H284.071L284.868 39.1383L296.052 37.2834ZM725.183 37.3834L728.649 40.0414H721.72L725.183 37.3834ZM366.144 37.4248L371.49 38.312C371.49 38.4948 371.49 38.6763 371.516 38.8547C371.606 39.4009 371.349 39.7736 370.881 40.0416H369.703L365.254 37.9047C365.572 37.7492 365.861 37.5881 366.144 37.4248ZM997.389 37.5051C997.966 38.3624 998.67 39.2069 999.462 40.0417H998.588C997.524 39.4567 996.404 38.8873 995.212 38.3415C995.938 38.0625 996.682 37.7899 997.389 37.5051ZM229.276 37.6382L230.114 38.7057C229.987 38.9157 229.848 39.1242 229.726 39.3344L227.668 38.739L229.276 37.6382ZM865.486 38.1925C865.19 38.8187 864.785 39.4361 864.287 40.0415H862.346L860.779 38.972L864.322 38.3844L865.486 38.1925ZM899.713 38.3137L897.418 39.8847L897.19 40.0412H896.3C896.61 39.6137 896.859 39.1854 897.05 38.7544L897.418 38.6937L899.713 38.3137ZM35.2042 38.3441L43.2817 39.6839L43.5971 40.0424H29.7849L32.1533 39.3001L35.2042 38.3441ZM682.603 38.393L683.493 40.0423H681.973L678.581 39.0609L682.603 38.393ZM1158.84 38.44C1158.88 38.5196 1158.88 38.5977 1158.89 38.6769C1159.07 39.138 1159.32 39.5926 1159.63 40.0402H1157.43L1158.84 38.44ZM498.896 38.5946L499.667 38.8062C499.924 39.2189 500.202 39.6296 500.482 40.0402H498.356C498.616 39.5589 498.809 39.0771 498.896 38.5946ZM1026.49 38.6249C1026.21 39.0959 1025.93 39.5667 1025.68 40.0392H1024.65L1026.49 38.6249ZM910.508 38.664L918.8 40.039H910.336C910.489 39.8609 910.582 39.6653 910.508 39.424C910.426 39.1644 910.447 38.9126 910.508 38.664ZM592.314 38.8422L594.647 40.039H590.567L592.314 38.8422ZM605.082 38.8422L607.414 40.039H603.334L605.082 38.8422ZM475.541 38.9949L478.867 40.037H473.836L473.971 39.7902C474.495 39.526 475.017 39.2597 475.541 38.9949ZM715.329 39.2201C715.238 39.4926 715.119 39.7638 715.043 40.0369H714.132L715.329 39.2201ZM444.841 39.3061L449.242 40.0368H444.272C443.922 39.9917 443.581 39.9427 443.237 39.8939C443.772 39.6983 444.328 39.5109 444.841 39.3061ZM1040.49 39.3061L1041.03 39.455C1041.03 39.4286 1041.03 39.4058 1041.03 39.3808L1042.29 40.037H1040.26L1040.49 39.3061ZM361.609 39.3327C362.006 39.57 362.429 39.8019 362.835 40.0378H359.167C360.009 39.8176 360.825 39.5819 361.609 39.3327ZM378.493 39.4699L380.203 39.7538L381.922 40.0377H377.664L378.493 39.4699ZM405.767 39.504L406.103 40.0387H405.571C405.309 39.9769 405.052 39.9098 404.79 39.8507C405.113 39.7339 405.444 39.6215 405.767 39.504ZM823.738 39.5627L823.997 40.0387H822.218L823.738 39.5627ZM674.729 39.6958C675.052 39.8099 675.375 39.9247 675.701 40.0384H672.661L674.729 39.6958ZM193.791 39.7185L194.417 40.0396H193.321L193.791 39.7185ZM206.564 39.7185L207.19 40.0396H206.094L206.564 39.7185ZM781.473 39.7205L782.095 40.0396H781.007L781.473 39.7205ZM991.664 39.7205L992.13 40.0396H991.042L991.664 39.7205ZM596.943 39.8577C596.837 39.9188 596.736 39.9806 596.633 40.0419H594.692C595.404 39.9661 596.175 39.8896 596.943 39.8577Z" fill="#71BF8D"/>
</g>
<defs>
<clipPath id="clip0_22_7">
<rect width="1245" height="54" fill="white"/>
</clipPath>
</defs>
</svg>
